<?xml version="1.0" encoding="UTF-8" standalone="no"?>
<!-- Created with Inkscape (http://www.inkscape.org/) -->

<svg
   xmlns:dc="http://purl.org/dc/elements/1.1/"
   xmlns:cc="http://creativecommons.org/ns#"
   xmlns:rdf="http://www.w3.org/1999/02/22-rdf-syntax-ns#"
   xmlns:svg="http://www.w3.org/2000/svg"
   xmlns="http://www.w3.org/2000/svg"
   xmlns:xlink="http://www.w3.org/1999/xlink"
   xmlns:sodipodi="http://sodipodi.sourceforge.net/DTD/sodipodi-0.dtd"
   xmlns:inkscape="http://www.inkscape.org/namespaces/inkscape"
   width="24"
   height="24"
   id="svg4594"
   sodipodi:version="0.32"
   inkscape:version="0.92.4 (5da689c313, 2019-01-14)"
   sodipodi:docname="text.svg"
   inkscape:output_extension="org.inkscape.output.svg.inkscape"
   version="1.1"
   inkscape:export-filename="/home/user/Cad/icons/text.png"
   inkscape:export-xdpi="96"
   inkscape:export-ydpi="96">
  <defs
     id="defs4596">
    <linearGradient
       id="linearGradient3792">
      <stop
         style="stop-color:#fce94f;stop-opacity:1"
         offset="0"
         id="stop3794" />
      <stop
         style="stop-color:#c4a000;stop-opacity:1"
         offset="1"
         id="stop3796" />
    </linearGradient>
    <inkscape:perspective
       sodipodi:type="inkscape:persp3d"
       inkscape:vp_x="0 : 32 : 1"
       inkscape:vp_y="0 : 1000 : 0"
       inkscape:vp_z="64 : 32 : 1"
       inkscape:persp3d-origin="32 : 21.333333 : 1"
       id="perspective4602" />
    <linearGradient
       inkscape:collect="always"
       xlink:href="#linearGradient3792"
       id="linearGradient3806"
       x1="4115.4229"
       y1="1473.5258"
       x2="4157.8677"
       y2="1734.2576"
       gradientUnits="userSpaceOnUse"
       gradientTransform="matrix(0.32082262,0,0,0.34804524,2665.7032,1167.0513)" />
  </defs>
  <sodipodi:namedview
     id="base"
     pagecolor="#ffffff"
     bordercolor="#666666"
     borderopacity="1.0"
     inkscape:pageopacity="0.0"
     inkscape:pageshadow="2"
     inkscape:zoom="28.83203"
     inkscape:cx="11.616497"
     inkscape:cy="10.274653"
     inkscape:current-layer="g3491"
     showgrid="true"
     inkscape:document-units="px"
     inkscape:grid-bbox="true"
     inkscape:window-width="2560"
     inkscape:window-height="1331"
     inkscape:window-x="0"
     inkscape:window-y="31"
     inkscape:snap-global="false"
     inkscape:window-maximized="1">
    <inkscape:grid
       type="xygrid"
       id="grid2986"
       empspacing="2"
       visible="true"
       enabled="true"
       snapvisiblegridlinesonly="true" />
  </sodipodi:namedview>
  <g
     id="layer1"
     inkscape:label="Layer 1"
     inkscape:groupmode="layer"
     transform="translate(0,-40)">
    <g
       id="g3491"
       inkscape:export-filename="/home/yorik/Documents/Lab/Draft/icons/text.png"
       inkscape:export-xdpi="7.820137"
       inkscape:export-ydpi="7.820137"
       transform="matrix(0.1649204,0,0,0.1649204,-643.71716,-232.01446)">
      <path
         id="text2714"
         d="m 3997.6958,1743.2161 h -35.0157 l -10.7396,14.1821 c -1.1279,1.8127 -0.7653,1.6587 -0.9324,2.7011 0,2.1104 1.2589,3.4503 3.8907,4.2208 v 4.2208 h -31.1251 v -4.2208 c 1.7544,-0.3626 4.7916,-1.2039 5.8359,-2.1104 1.0443,-0.9064 1.9454,-2.1104 3.8906,-4.2209 l 44.7423,-69.6425 c 1.4204,-2.2659 1.6948,-2.8612 1.9454,-4.221 0.4177,-2.0844 0.3104,-3.3141 -1.9454,-4.2207 v -4.2205 h 31.1253 v 4.2205 c -3.8908,0 -5.5019,0.2073 -5.8361,2.1105 -0.2508,1.3144 -0.2096,2.194 0.2918,3.8707 l 19.3622,71.5124 c 0.8355,3.0364 0.909,3.6785 1.7445,4.8115 0.8354,1.0877 2.2196,1.7478 3.8907,2.1104 v 4.2208 h -31.1251 v -4.2208 c 2.8823,-0.4985 3.4729,-1.9096 3.8906,-4.2208 0.1671,-0.9516 0.5013,-2.3627 0,-4.2209 l -3.8906,-12.6623 m 0,-12.6622 -7.7813,-33.7661 -23.3438,33.7661 h 31.1251"
         style="font-style:normal;font-variant:normal;font-weight:bold;font-stretch:normal;font-size:40px;font-family:'Copperplate Gothic Bold';-inkscape-font-specification:'Copperplate Gothic Bold, Bold';fill:url(#linearGradient3806);fill-opacity:1;stroke:#302b00;stroke-width:4.05234098;stroke-linecap:round;stroke-linejoin:round;stroke-miterlimit:4;stroke-dasharray:none;stroke-opacity:1"
         inkscape:connector-curvature="0"
         sodipodi:nodetypes="ccccccccscccccccccccccccccccccc" />
      <path
         id="text2714-1"
         d="m 4000.1798,1738.9956 h -39.1568 l -11.6021,15.2294 c -2.8804,4.0392 -2.1092,6.1502 -2.4376,6.5937 0,1.9666 2.9549,2.9753 5.343,3.6933 l 0.398,-0.049 -25.06,-0.1445 -1.1937,1.0073 c 1.5921,-0.3379 7.4871,-1.8893 8.4346,-2.734 0.9477,-0.8446 2.3843,-2.9258 3.9284,-5.3718 l 37.5931,-58.5153 c 1.2887,-2.1114 5.0747,-7.7981 6.0979,-9.9283 1.0864,-1.9424 2.9345,-7.8367 0.8876,-8.6814 l -3.2719,-0.1917 h 27.3147 l -4.2001,-0.24 c -3.5302,0 -3.4449,1.8238 -3.7039,3.2136 -0.2275,1.2247 0.2079,2.7159 0.6627,4.2783 l 17.8346,65.8212 c 0.758,2.8293 0.7806,3.3796 1.2292,5.2028 1.1562,3.4596 0.4225,4.3147 1.9389,4.6526 l 5.6591,1.4867 h -27.2344 l 4.0234,-2.1583 c 1.5984,-3.1025 1.6563,-2.259 2.0351,-4.4125 0.1517,-0.8869 -0.8272,-4.408 -1.282,-6.1394 l -4.1494,-12.3265 m 1.4314,-6.4079 -10.7027,-42.6586 -28.8147,42.6106 39.1498,0.015"
         style="font-style:normal;font-variant:normal;font-weight:bold;font-stretch:normal;font-size:40px;font-family:'Copperplate Gothic Bold';-inkscape-font-specification:'Copperplate Gothic Bold, Bold';fill:none;stroke:#fce94f;stroke-width:4.05234098;stroke-linecap:round;stroke-linejoin:round;stroke-miterlimit:4;stroke-dasharray:none;stroke-opacity:1"
         inkscape:connector-curvature="0"
         sodipodi:nodetypes="ccccccccscccccccccccccccccccccc" />
      <path
         id="text2714-7"
         d="m 3997.6958,1743.2161 h -35.0157 l -10.7396,14.1821 c -1.1279,1.8127 -0.7653,1.6587 -0.9324,2.7011 0,2.1104 1.2589,3.4503 3.8907,4.2208 v 4.2208 h -31.1251 v -4.2208 c 1.7544,-0.3626 4.7916,-1.2039 5.8359,-2.1104 1.0443,-0.9064 1.9454,-2.1104 3.8906,-4.2209 l 44.7423,-69.6425 c 1.4204,-2.2659 1.6948,-2.8612 1.9454,-4.221 0.4177,-2.0844 0.3104,-3.3141 -1.9454,-4.2207 v -4.2205 h 31.1252 v 4.2205 c -3.8907,0 -5.5019,0.2073 -5.836,2.1105 -0.2508,1.3144 -0.2096,2.194 0.2918,3.8707 l 19.3622,71.5124 c 0.8354,3.0364 0.909,3.6785 1.7445,4.8115 0.8354,1.0877 2.2195,1.7478 3.8907,2.1104 v 4.2208 h -31.1251 v -4.2208 c 2.8822,-0.4985 3.4728,-1.9096 3.8906,-4.2208 0.1671,-0.9516 0.5013,-2.3627 0,-4.2209 l -3.8906,-12.6623 m 0,-12.6622 -7.7813,-33.7661 -23.3438,33.7661 h 31.1251"
         style="font-style:normal;font-variant:normal;font-weight:bold;font-stretch:normal;font-size:40px;font-family:'Copperplate Gothic Bold';-inkscape-font-specification:'Copperplate Gothic Bold, Bold';fill:none;stroke:#302b00;stroke-width:4.05234098;stroke-linecap:round;stroke-linejoin:round;stroke-miterlimit:4;stroke-dasharray:none;stroke-opacity:1"
         inkscape:connector-curvature="0"
         sodipodi:nodetypes="ccccccccscccccccccccccccccccccc" />
    </g>
  </g>
  <metadata
     id="metadata5750">
    <rdf:RDF>
      <cc:Work
         rdf:about="">
        <dc:format>image/svg+xml</dc:format>
        <dc:type
           rdf:resource="http://purl.org/dc/dcmitype/StillImage" />
        <dc:title />
        <cc:license
           rdf:resource="" />
        <dc:date>Mon Oct 10 13:44:52 2011 +0000</dc:date>
        <dc:creator>
          <cc:Agent>
            <dc:title>[wmayer]</dc:title>
          </cc:Agent>
        </dc:creator>
        <dc:rights>
          <cc:Agent>
            <dc:title>FreeCAD LGPL2+</dc:title>
          </cc:Agent>
        </dc:rights>
        <dc:publisher>
          <cc:Agent>
            <dc:title>FreeCAD</dc:title>
          </cc:Agent>
        </dc:publisher>
        <dc:identifier>FreeCAD/src/Mod/Draft/Resources/icons/Draft_Text.svg</dc:identifier>
        <dc:relation>http://www.freecadweb.org/wiki/index.php?title=Artwork</dc:relation>
        <dc:contributor>
          <cc:Agent>
            <dc:title>[agryson] Alexander Gryson</dc:title>
          </cc:Agent>
        </dc:contributor>
        <dc:description>The capital letter A, slightly italicized</dc:description>
        <dc:subject>
          <rdf:Bag>
            <rdf:li>A</rdf:li>
            <rdf:li>letter</rdf:li>
          </rdf:Bag>
        </dc:subject>
      </cc:Work>
    </rdf:RDF>
  </metadata>
</svg>
